<svg width="118" height="52" viewBox="0 0 118 52" fill="none" xmlns="http://www.w3.org/2000/svg" style="max-width:100%">
                                <path d="M27.239 2.50822C27.2694 2.19241 27.2338 1.87371 27.1345 1.5724C27.0352 1.27108 26.8743 0.993706 26.6621 0.757862C26.4499 0.522019 26.191 0.332878 25.9018 0.202418C25.6126 0.0719575 25.2994 0.00300152 24.9821 0H24.9545C24.636 0.00441508 24.322 0.0759895 24.033 0.210039C23.744 0.344089 23.4866 0.537635 23.2775 0.777968C23.0684 1.0183 22.9123 1.30005 22.8195 1.6048C22.7267 1.90955 22.6993 2.23044 22.739 2.54652C22.739 4.7023 22.739 6.23907 22.739 8.39026V11.5021C20.253 9.29502 17.048 8.06943 13.7236 8.05472C13.405 8.05472 13.0771 8.06544 12.7522 8.08689C10.8405 8.18121 8.97227 8.6909 7.27749 9.58049C5.58272 10.4701 4.10208 11.7182 2.93861 13.2381C1.34812 15.2437 0.357091 17.6581 0.0798602 20.2028C-0.19737 22.7474 0.250505 25.3186 1.3718 27.6197C2.49309 29.9208 4.2421 31.8579 6.41704 33.2076C8.59199 34.5573 11.1042 35.2646 13.6639 35.2479C16.9891 35.2171 20.2001 34.0308 22.7467 31.8924V32.7688C22.7072 33.084 22.7357 33.404 22.8306 33.7072C22.9254 34.0104 23.0842 34.2897 23.2963 34.5262C23.5084 34.7627 23.7688 34.9509 24.0599 35.078C24.351 35.2052 24.666 35.2683 24.9837 35.2632H25.002C25.3216 35.2637 25.6376 35.1965 25.9292 35.0658C26.2208 34.9352 26.4813 34.7441 26.6936 34.5053C26.9059 34.2665 27.0651 33.9854 27.1607 33.6805C27.2563 33.3756 27.2862 33.0539 27.2482 32.7366C27.2467 21.3602 27.2421 11.8882 27.239 2.50822ZM22.7344 21.6605C22.7316 24.0717 21.7727 26.3833 20.068 28.0885C18.3634 29.7938 16.052 30.7534 13.6409 30.7571C11.2295 30.7599 8.91585 29.8048 7.20876 28.1017C5.50167 26.3986 4.54106 24.0871 4.53822 21.6758C4.53537 19.2645 5.49054 16.9508 7.19361 15.2437C8.89667 13.5366 11.2081 12.576 13.6195 12.5731V12.2667V12.5731C16.0296 12.5784 18.3397 13.5366 20.0459 15.2388C21.7521 16.941 22.7158 19.2489 22.7268 21.659L22.7344 21.6605Z" fill="white"/>
                                <path d="M38.8392 18.6283C38.8693 18.3137 38.8338 17.9963 38.735 17.6961C38.6362 17.396 38.4761 17.1196 38.265 16.8844C38.0539 16.6493 37.7963 16.4605 37.5084 16.3299C37.2206 16.1994 36.9089 16.1301 36.5929 16.1263H36.5578C36.24 16.1336 35.9273 16.2067 35.6392 16.3411C35.3512 16.4754 35.0942 16.668 34.8844 16.9068C34.6746 17.1455 34.5165 17.4252 34.4203 17.7281C34.3241 18.031 34.2918 18.3505 34.3253 18.6666C34.3253 20.3841 34.3253 21.6344 34.3253 23.3505V27.6038C34.3253 29.2964 34.3253 30.9885 34.3253 32.68C34.2829 33.001 34.3094 33.3274 34.4029 33.6374C34.4965 33.9475 34.6549 34.234 34.8679 34.478C35.0809 34.7219 35.3434 34.9177 35.6379 35.0523C35.9325 35.1869 36.2522 35.2573 36.5761 35.2586H36.6006C36.9198 35.2585 37.2353 35.1907 37.5264 35.0598C37.8175 34.9289 38.0776 34.7378 38.2895 34.4991C38.5014 34.2604 38.6604 33.9795 38.756 33.6749C38.8515 33.3704 38.8813 33.0491 38.8437 32.7321C38.8498 27.466 38.8499 23.1758 38.8392 18.6283Z" fill="white"/>
                                <path d="M36.6648 8.04097H36.5943C35.8924 8.04941 35.2205 8.32677 34.7171 8.81595C34.2136 9.30512 33.9171 9.96883 33.8885 10.6702C33.8773 11.0307 33.9393 11.3897 34.071 11.7255C34.2027 12.0613 34.4013 12.3669 34.6546 12.6237C34.9048 12.8862 35.2051 13.0959 35.5378 13.2403C35.8704 13.3848 36.2285 13.4612 36.5911 13.4649H36.605C37.3147 13.4593 37.994 13.1757 38.497 12.675C39 12.1743 39.2866 11.4964 39.2955 10.7867C39.3043 10.077 39.0346 9.39213 38.5441 8.87907C38.0537 8.36601 37.3819 8.06566 36.6725 8.04247L36.6648 8.04097Z" fill="#3FECE2"/>
                                <path d="M70.3685 30.2544C70.2374 30.1154 70.1644 29.9315 70.1644 29.7404C70.1644 29.5493 70.2374 29.3654 70.3685 29.2264C72.0186 26.761 72.819 23.8244 72.6481 20.8627C72.4772 17.901 71.3444 15.0759 69.4217 12.8167C69.3574 12.7431 69.2976 12.6635 69.2317 12.5731H69.2807H69.8033C70.0546 12.5731 71.029 12.5731 71.2159 12.5623C71.684 12.5701 72.1416 12.4246 72.5192 12.148C72.8968 11.8713 73.1737 11.4788 73.3074 11.0301C73.4358 10.7047 73.4815 10.3525 73.4409 10.005C73.4003 9.65749 73.2743 9.3254 73.0743 9.03832C72.8209 8.70983 72.4922 8.44709 72.116 8.27242C71.7397 8.09774 71.327 8.01621 70.9126 8.0347H69.8169C68.0473 8.0347 66.2163 8.02095 64.4144 8.02095C62.3368 8.02095 60.5242 8.03167 58.868 8.05312C57.7976 8.07079 56.733 8.21163 55.6949 8.47292C52.5142 9.27136 49.7305 11.1952 47.8591 13.8882C45.9878 16.5813 45.1556 19.8611 45.5165 23.1206C45.9285 26.4718 47.5265 29.565 50.0212 31.8403C52.5103 34.0542 55.7299 35.2695 59.061 35.2525C61.7791 35.2556 64.4367 34.4502 66.6959 32.9389C67.6728 34.3958 68.1798 36.1171 68.1484 37.8709C68.114 40.0181 67.329 42.0854 65.9296 43.7143C64.5303 45.3431 62.6049 46.4306 60.4875 46.7883C60.0111 46.8687 59.5287 46.9087 59.0456 46.9078C57.1745 46.902 55.351 46.3181 53.8244 45.2362C52.2978 44.1542 51.1429 42.6269 50.5176 40.8633C50.4084 40.5352 50.3179 40.2011 50.2464 39.8628C50.1928 39.6437 50.1407 39.4138 50.0809 39.1917C49.956 38.6989 49.674 38.2603 49.2776 37.9421C48.8812 37.6239 48.3919 37.4435 47.8838 37.4281C47.7558 37.4276 47.628 37.4394 47.5023 37.4634C46.9333 37.5546 46.4222 37.8638 46.0773 38.3254C45.7323 38.7871 45.5806 39.3648 45.6544 39.9364C45.6983 40.4482 45.7982 40.9538 45.9518 41.444C46.6078 44.016 48.0278 46.3287 50.0244 48.0776C52.0211 49.8264 54.5006 50.9293 57.1366 51.2408C57.8877 51.3488 58.6454 51.4041 59.4042 51.4062C61.6612 51.4243 63.8825 50.8421 65.8404 49.7191C67.7983 48.5961 69.4224 46.9728 70.5464 45.0155C71.9961 42.8242 72.7624 40.2517 72.7481 37.6242C72.6447 34.9961 71.8215 32.4468 70.3685 30.2544ZM59.081 30.7524H59.0518C56.6405 30.7486 54.3295 29.7869 52.6272 28.0791C50.9248 26.3713 49.9706 24.0573 49.9745 21.6459C49.9783 19.2346 50.94 16.9235 52.6478 15.2211C54.3556 13.5188 56.6696 12.5646 59.081 12.5685V12.262L59.0916 12.5685C61.503 12.5699 63.815 13.5291 65.5191 15.2352C67.2231 16.9413 68.1797 19.2545 68.1783 21.6658C68.1769 24.0772 67.2177 26.3892 65.5116 28.0933C63.8055 29.7973 61.4923 30.7538 59.081 30.7524Z" fill="white"/>
                                <path d="M83.9178 18.6283C83.9479 18.3137 83.9126 17.9963 83.8138 17.6961C83.715 17.396 83.5547 17.1196 83.3436 16.8844C83.1325 16.6493 82.875 16.4605 82.5872 16.3299C82.2994 16.1994 81.9879 16.1301 81.6719 16.1263H81.6364C81.3185 16.1334 81.0059 16.2063 80.7176 16.3406C80.4294 16.4749 80.172 16.6675 79.962 16.9063C79.7521 17.1451 79.5941 17.4247 79.4978 17.7277C79.4015 18.0308 79.3689 18.3504 79.4024 18.6666C79.4024 20.3841 79.4024 21.6344 79.4024 23.3505V27.6038C79.4024 29.2964 79.4024 30.9885 79.4024 32.68C79.36 33.001 79.3867 33.3274 79.4802 33.6374C79.5738 33.9475 79.7322 34.234 79.9452 34.478C80.1581 34.7219 80.4205 34.9177 80.715 35.0523C81.0096 35.1869 81.3294 35.2573 81.6532 35.2586H81.6779C81.9971 35.2585 82.3126 35.1907 82.6037 35.0598C82.8948 34.9289 83.1549 34.7378 83.3668 34.4991C83.5787 34.2604 83.7377 33.9795 83.8333 33.6749C83.9288 33.3704 83.9584 33.0491 83.9208 32.7321C83.9285 27.466 83.9285 23.1758 83.9178 18.6283Z" fill="white"/>
                                <path d="M81.745 8.04097H81.6747C80.9728 8.04941 80.3007 8.32677 79.7972 8.81595C79.2938 9.30512 78.9973 9.96883 78.9687 10.6702C78.9571 11.0298 79.0181 11.3881 79.1478 11.7237C79.2776 12.0593 79.4738 12.3654 79.7243 12.6237C79.9745 12.8862 80.2748 13.0959 80.6075 13.2403C80.9401 13.3848 81.2982 13.4612 81.6608 13.4649H81.6747C82.3846 13.46 83.0643 13.1769 83.5678 12.6764C84.0713 12.176 84.3584 11.4981 84.3676 10.7882C84.3768 10.0784 84.1075 9.39319 83.6172 8.87982C83.1269 8.36645 82.4545 8.06582 81.745 8.04247V8.04097Z" fill="#3FECE2"/>
                                <path d="M114.017 12.0078C112.435 10.429 110.489 9.26385 108.35 8.61517C106.211 7.9665 103.946 7.8542 101.753 8.28824C99.5606 8.72228 97.5088 9.68929 95.7784 11.1039C94.0481 12.5186 92.6925 14.3373 91.8313 16.3998C90.9701 18.4623 90.6298 20.705 90.8404 22.9301C91.051 25.1552 91.8059 27.2943 93.0388 29.1586C94.2716 31.0229 95.9445 32.555 97.9095 33.62C99.8746 34.6849 102.071 35.2497 104.306 35.2647H104.336C106.129 35.276 107.906 34.9339 109.567 34.258C111.228 33.5821 112.74 32.5857 114.016 31.3255C115.285 30.07 116.29 28.5741 116.974 26.9254C117.658 25.2767 118.007 23.5083 118 21.7234C118.013 19.9208 117.668 18.1335 116.984 16.4656C116.301 14.7976 115.292 13.2823 114.017 12.0078ZM104.391 30.7524C101.982 30.7419 99.6766 29.7767 97.9791 28.0686C96.2816 26.3604 95.3311 24.0488 95.3356 21.6406C95.3456 19.2371 96.3054 16.9351 98.0056 15.2363C99.7059 13.5375 102.008 12.5797 104.412 12.5716H104.434C106.841 12.5821 109.146 13.5467 110.843 15.2539C112.541 16.961 113.492 19.2715 113.489 21.6789C113.478 24.0858 112.515 26.3907 110.811 28.0904C109.106 29.7901 106.799 30.7465 104.392 30.7509L104.391 30.7524Z" fill="white"/>
                            </svg>